<?xml version="1.0" encoding="UTF-8"?> <!-- Generator: Adobe Illustrator 23.0.1, SVG Export Plug-In . SVG Version: 6.00 Build 0) --> <svg xmlns="http://www.w3.org/2000/svg" xmlns:xlink="http://www.w3.org/1999/xlink" id="Слой_1" x="0px" y="0px" viewBox="0 0 1875.2 346.4" style="enable-background:new 0 0 1875.2 346.4;" xml:space="preserve"> <style type="text/css"> .st0{fill:none;stroke:#0070C1;stroke-width:0.75;stroke-miterlimit:10;} .st1{fill:#FFFFFF;} .st2{fill:#0070C1;} .st3{fill:none;stroke:#C6C6C6;stroke-width:0.5;stroke-miterlimit:10;} .st4{fill:#C6C6C6;} </style> <title>Ресурс 1</title> <g> <g id="Слой_2-2"> <g> <polyline class="st0" points="950,37.8 400.2,37.8 372.4,10.1 135.7,10.1 "></polyline> <path class="st1" d="M949.9,35c1.6,0,2.8,1.3,2.8,2.8s-1.3,2.8-2.8,2.8c-1.6,0-2.8-1.3-2.8-2.8l0,0C947,36.3,948.3,35,949.9,35z"></path> <path class="st2" d="M949.9,34.6c-1.8,0-3.2,1.4-3.2,3.2s1.4,3.2,3.2,3.2c1.8,0,3.2-1.4,3.2-3.2l0,0 C953,36,951.6,34.6,949.9,34.6z M949.9,40.2c-1.4,0-2.5-1.1-2.5-2.4c0-1.4,1.1-2.5,2.4-2.5c1.4,0,2.5,1.1,2.5,2.4l0,0 C952.3,39.1,951.2,40.2,949.9,40.2z"></path> <path class="st1" d="M135.9,7.2c-1.6,0-2.8,1.3-2.8,2.8c0,1.6,1.3,2.8,2.8,2.8c1.6,0,2.8-1.3,2.8-2.8 C138.7,8.5,137.4,7.2,135.9,7.2L135.9,7.2z"></path> <path class="st2" d="M135.9,6.9c1.8,0,3.2,1.4,3.2,3.2s-1.4,3.2-3.2,3.2s-3.2-1.4-3.2-3.2C132.6,8.3,134.1,6.9,135.9,6.9 C135.8,6.8,135.8,6.8,135.9,6.9z M135.9,12.5c1.4,0,2.4-1.1,2.4-2.5s-1.1-2.4-2.5-2.4s-2.4,1.1-2.4,2.5l0,0 C133.4,11.4,134.5,12.5,135.9,12.5C135.8,12.5,135.8,12.5,135.9,12.5z"></path> </g> <polyline class="st0" points="3,254.7 337,254.7 388.1,305.9 1047.9,305.9 "></polyline> <path class="st1" d="M3.2,257.6c-1.6,0-2.8-1.3-2.8-2.8c0-1.5,1.3-2.8,2.8-2.8s2.8,1.3,2.8,2.8l0,0C6,256.3,4.7,257.6,3.2,257.6z"></path> <path class="st2" d="M3.2,257.9c1.8,0,3.2-1.4,3.2-3.2c0-1.8-1.4-3.2-3.2-3.2S0,252.9,0,254.7l0,0C0,256.5,1.4,257.9,3.2,257.9z M3.2,252.3c1.4,0,2.5,1.1,2.5,2.4c0,1.4-1.1,2.5-2.4,2.5s-2.5-1.1-2.5-2.4l0,0C0.7,253.4,1.8,252.3,3.2,252.3z"></path> <circle class="st1" cx="1047.7" cy="305.9" r="2.8"></circle> <path class="st2" d="M1047.7,309.1c-1.8,0-3.2-1.4-3.2-3.2c0-1.8,1.4-3.2,3.2-3.2s3.2,1.4,3.2,3.2l0,0 C1050.9,307.7,1049.5,309.1,1047.7,309.1z M1047.7,303.5c-1.4,0-2.5,1.1-2.5,2.4c0,1.4,1.1,2.5,2.4,2.5c1.4,0,2.5-1.1,2.5-2.4l0,0 C1050.2,304.5,1049.1,303.5,1047.7,303.5z"></path> <path class="st3" d="M77.6,37.7c20.7-0.8,182.3,0.1,182.3,0.1L321.1,99h75.5"></path> <path class="st1" d="M77.8,39.6c-1,0.1-1.9-0.7-2-1.8c-0.1-1,0.7-1.9,1.8-2c1-0.1,1.9,0.7,2,1.8C79.6,38.6,78.8,39.5,77.8,39.6z"></path> <path class="st4" d="M77.8,39.8c1.2-0.1,2.1-1.1,2-2.2c-0.1-1.2-1.1-2.1-2.2-2c-1.2,0.1-2.1,1.1-2,2.2l0,0 C75.6,39,76.6,39.9,77.8,39.8C79,39.7,76.6,39.9,77.8,39.8z M77.6,36.1c0.9,0,1.7,0.6,1.7,1.5s-0.6,1.7-1.5,1.7l0,0 c-0.9,0-1.7-0.6-1.7-1.5C76,36.9,76.7,36.1,77.6,36.1z"></path> <path class="st1" d="M396.5,100.9c1,0,1.9-0.8,1.9-1.9c0-1-0.8-1.9-1.9-1.9c-1,0-1.9,0.8-1.9,1.8 C394.6,100,395.4,100.9,396.5,100.9L396.5,100.9z"></path> <path class="st4" d="M396.5,101.2c-1.2,0-2.1-1-2.1-2.1c0-1.2,1-2.1,2.1-2.1c1.2,0,2.1,0.9,2.1,2.1 C398.6,100.2,397.7,101.1,396.5,101.2L396.5,101.2L396.5,101.2z M396.5,97.4c-0.9,0-1.6,0.7-1.6,1.6s0.7,1.6,1.6,1.6 s1.6-0.7,1.6-1.6l0,0C398.1,98.1,397.4,97.4,396.5,97.4L396.5,97.4L396.5,97.4z"></path> <g> <polyline class="st3" points="362.7,135.5 277.2,135.5 223.8,82 47.7,82 "></polyline> <path class="st1" d="M362.6,133.6c1,0,1.9,0.8,1.9,1.9c0,1.1-0.8,1.9-1.9,1.9s-1.9-0.8-1.9-1.9 C360.8,134.4,361.6,133.6,362.6,133.6L362.6,133.6z"></path> <path class="st4" d="M362.6,133.3c-1.2,0-2.1,1-2.1,2.1c0,1.1,1,2.1,2.1,2.1s2.1-1,2.1-2.1C364.8,134.3,363.8,133.3,362.6,133.3 L362.6,133.3z M362.6,137.1c-0.9,0-1.6-0.7-1.6-1.6s0.7-1.6,1.6-1.6s1.6,0.7,1.6,1.6C364.3,136.4,363.5,137.1,362.6,137.1 L362.6,137.1z"></path> <path class="st1" d="M47.9,80.2c-1,0-1.9,0.8-1.9,1.9c0,1,0.8,1.9,1.9,1.9c1,0,1.9-0.8,1.9-1.9l0,0C49.8,81,48.9,80.2,47.9,80.2z "></path> <path class="st4" d="M47.9,79.9c1.2,0,2.1,1,2.1,2.1c0,1.2-1,2.1-2.1,2.1c-1.2,0-2.1-1-2.1-2.1l0,0 C45.8,80.9,46.7,79.9,47.9,79.9z M47.9,83.7c0.9,0,1.6-0.7,1.6-1.6s-0.7-1.6-1.6-1.6c-0.9,0-1.6,0.7-1.6,1.6l0,0 C46.3,82.9,47,83.7,47.9,83.7z"></path> </g> <g> <line class="st3" x1="199" y1="103.3" x2="275.3" y2="179.6"></line> <circle class="st1" cx="199" cy="103.3" r="1.9"></circle> <path class="st4" d="M197.5,104.8c0.8,0.8,2.2,0.8,3,0s0.8-2.2,0-3s-2.2-0.8-3,0l0,0C196.7,102.7,196.7,104,197.5,104.8z M200.2,102.2c0.6,0.6,0.6,1.7,0,2.3c-0.6,0.6-1.7,0.6-2.3,0s-0.6-1.7,0-2.3l0,0C198.5,101.6,199.5,101.6,200.2,102.2 C200.8,102.8,199.6,101.5,200.2,102.2z"></path> <path class="st1" d="M273.9,180.9c0.7,0.7,1.9,0.7,2.7,0s0.7-1.9,0-2.7c-0.7-0.7-1.9-0.7-2.7,0 C273.2,178.9,273.2,180.1,273.9,180.9z"></path> <path class="st4" d="M273.7,181c-0.8-0.8-0.8-2.2,0-3s2.2-0.8,3,0s0.8,2.2,0,3l0,0C275.9,181.8,274.6,181.8,273.7,181z M276.4,178.4c-0.6-0.6-1.7-0.6-2.3,0s-0.6,1.7,0,2.3s1.7,0.6,2.3,0l0,0C277,180,277,179,276.4,178.4 C275.7,177.7,277,179,276.4,178.4z"></path> </g> <line class="st3" x1="355.9" y1="215.2" x2="40.8" y2="215.2"></line> <path class="st1" d="M355.8,213.3c1,0,1.9,0.8,1.9,1.9s-0.8,1.9-1.9,1.9c-1,0-1.9-0.8-1.9-1.9 C353.9,214.2,354.7,213.3,355.8,213.3L355.8,213.3z"></path> <path class="st4" d="M355.8,213.1c-1.2,0-2.1,1-2.1,2.1s1,2.1,2.1,2.1c1.2,0,2.1-1,2.1-2.1C357.9,214,356.9,213.1,355.8,213.1z M355.8,216.9c-0.9,0-1.6-0.7-1.6-1.6s0.7-1.6,1.6-1.6s1.6,0.7,1.6,1.6S356.7,216.9,355.8,216.9L355.8,216.9z"></path> <path class="st1" d="M40.9,213.3c-1,0-1.9,0.8-1.9,1.9c0,1,0.8,1.9,1.9,1.9c1,0,1.9-0.8,1.9-1.9S41.9,213.3,40.9,213.3L40.9,213.3 z"></path> <path class="st4" d="M40.9,213.1c1.2,0,2.1,1,2.1,2.1c0,1.2-1,2.1-2.1,2.1s-2.1-1-2.1-2.1S39.7,213.1,40.9,213.1L40.9,213.1z M40.9,216.9c0.9,0,1.6-0.7,1.6-1.6c0-0.9-0.7-1.6-1.6-1.6c-0.9,0-1.6,0.7-1.6,1.6S40,216.9,40.9,216.9L40.9,216.9z"></path> <g> <polyline class="st3" points="964.5,110.8 1221.6,110.8 1330.3,2.1 1712.2,2.1 "></polyline> <g> <circle class="st1" cx="964.6" cy="110.8" r="1.9"></circle> <path class="st4" d="M964.6,112.9c1.2,0,2.1-1,2.1-2.1s-1-2.1-2.1-2.1c-1.2,0-2.1,1-2.1,2.1C962.5,112,963.4,112.9,964.6,112.9z M964.6,109.2c0.9,0,1.6,0.7,1.6,1.6s-0.7,1.6-1.6,1.6c-0.9,0-1.6-0.7-1.6-1.6S963.7,109.2,964.6,109.2L964.6,109.2z"></path> <circle class="st1" cx="1712.1" cy="2.1" r="1.9"></circle> <path class="st4" d="M1712.1,4.3c-1.2,0-2.1-1-2.1-2.1s1-2.1,2.1-2.1c1.2,0,2.1,1,2.1,2.1S1713.2,4.3,1712.1,4.3z M1712.1,0.5 c-0.9,0-1.6,0.7-1.6,1.6s0.7,1.6,1.6,1.6s1.6-0.7,1.6-1.6S1713,0.5,1712.1,0.5L1712.1,0.5z"></path> </g> </g> <line class="st3" x1="1307.5" y1="167.7" x2="1845.5" y2="167.7"></line> <circle class="st1" cx="1307.6" cy="167.7" r="1.9"></circle> <path class="st4" d="M1307.6,169.8c1.2,0,2.1-1,2.1-2.1s-1-2.1-2.1-2.1c-1.2,0-2.1,1-2.1,2.1S1306.4,169.8,1307.6,169.8 L1307.6,169.8z M1307.6,166c0.9,0,1.6,0.7,1.6,1.6s-0.7,1.6-1.6,1.6s-1.6-0.7-1.6-1.6C1306,166.8,1306.7,166,1307.6,166z"></path> <path class="st1" d="M1845.4,169.5c1,0,1.9-0.8,1.9-1.9s-0.8-1.9-1.9-1.9c-1,0-1.9,0.8-1.9,1.9S1844.3,169.5,1845.4,169.5 L1845.4,169.5z"></path> <path class="st4" d="M1845.4,169.8c-1.2,0-2.1-1-2.1-2.1s1-2.1,2.1-2.1c1.2,0,2.1,1,2.1,2.1S1846.6,169.8,1845.4,169.8 L1845.4,169.8z M1845.4,166c-0.9,0-1.6,0.7-1.6,1.6s0.7,1.6,1.6,1.6s1.6-0.7,1.6-1.6S1846.3,166,1845.4,166L1845.4,166z"></path> <g> <line class="st3" x1="1340.9" y1="237.6" x2="1254.2" y2="150.9"></line> <path class="st1" d="M1255.6,149.6c0.8,0.8,0.8,2,0,2.7c-0.8,0.7-2,0.7-2.7,0c-0.7-0.8-0.7-2,0-2.7 C1253.7,148.9,1254.9,148.9,1255.6,149.6C1255.6,149.6,1255.7,149.6,1255.6,149.6z"></path> <path class="st4" d="M1252.8,149.5L1252.8,149.5c-0.8,0.8-0.8,2.2,0,3c0.8,0.8,2.2,0.8,3,0c0.8-0.8,0.8-2.2,0-3 C1255,148.6,1253.7,148.6,1252.8,149.5z M1253.2,152.1C1252.5,151.5,1253.8,152.8,1253.2,152.1c-0.7-0.6-0.7-1.7,0-2.3 c0.6-0.6,1.7-0.6,2.3,0c0.6,0.6,0.6,1.7,0,2.3l0,0C1254.9,152.7,1253.8,152.7,1253.2,152.1L1253.2,152.1z"></path> <path class="st1" d="M1342.2,236.2c-0.8-0.8-2-0.8-2.7,0c-0.7,0.8-0.7,2,0,2.7c0.8,0.7,2,0.7,2.7,0 C1342.9,238.1,1342.9,236.9,1342.2,236.2C1342.2,236.2,1342.2,236.1,1342.2,236.2z"></path> <path class="st4" d="M1342.3,239L1342.3,239c-0.8,0.8-2.2,0.8-3,0s-0.8-2.2,0-3s2.2-0.8,3,0 C1343.2,236.8,1343.2,238.1,1342.3,239z M1339.7,238.6L1339.7,238.6c0.6,0.7,1.7,0.7,2.3,0c0.6-0.6,0.6-1.7,0-2.3 c-0.6-0.6-1.7-0.6-2.3,0S1339.1,238,1339.7,238.6C1340.3,239.3,1339.1,238,1339.7,238.6z"></path> </g> <polyline class="st3" points="1276.1,110.8 1465.6,110.8 1535.7,40.7 1791.8,40.7 "></polyline> <circle class="st1" cx="1276.2" cy="110.8" r="1.9"></circle> <path class="st4" d="M1276.2,112.9c1.2,0,2.1-1,2.1-2.1s-1-2.1-2.1-2.1c-1.2,0-2.1,1-2.1,2.1S1275,112.9,1276.2,112.9 L1276.2,112.9z M1276.2,109.2c0.9,0,1.6,0.7,1.6,1.6s-0.7,1.6-1.6,1.6s-1.6-0.7-1.6-1.6S1275.3,109.2,1276.2,109.2L1276.2,109.2z"></path> <circle class="st1" cx="1791.7" cy="40.7" r="1.9"></circle> <path class="st4" d="M1791.7,42.8c-1.2,0-2.1-1-2.1-2.1s1-2.1,2.1-2.1c1.2,0,2.1,1,2.1,2.1S1792.9,42.8,1791.7,42.8L1791.7,42.8z M1791.7,39.1c-0.9,0-1.6,0.7-1.6,1.6s0.7,1.6,1.6,1.6s1.6-0.7,1.6-1.6S1792.6,39.1,1791.7,39.1L1791.7,39.1z"></path> <g> <line class="st3" x1="1309.6" y1="79.9" x2="1463.3" y2="79.9"></line> <circle class="st1" cx="1309.7" cy="79.9" r="1.9"></circle> <path class="st4" d="M1309.7,82c1.2,0,2.1-1,2.1-2.1s-1-2.1-2.1-2.1c-1.2,0-2.1,1-2.1,2.1S1308.5,82,1309.7,82L1309.7,82z M1309.7,78.3c0.9,0,1.6,0.7,1.6,1.6c0,0.9-0.7,1.6-1.6,1.6s-1.6-0.7-1.6-1.6C1308.1,79,1308.8,78.3,1309.7,78.3L1309.7,78.3z"></path> <circle class="st1" cx="1463.2" cy="79.9" r="1.9"></circle> <path class="st4" d="M1463.2,82c-1.2,0-2.1-1-2.1-2.1s1-2.1,2.1-2.1c1.2,0,2.1,1,2.1,2.1S1464.4,82,1463.2,82L1463.2,82z M1463.2,78.3c-0.9,0-1.6,0.7-1.6,1.6c0,0.9,0.7,1.6,1.6,1.6s1.6-0.7,1.6-1.6C1464.8,79,1464.1,78.3,1463.2,78.3L1463.2,78.3z"></path> </g> <g> <line class="st3" x1="1063.6" y1="79.9" x2="1217.3" y2="79.9"></line> <circle class="st1" cx="1063.7" cy="79.9" r="1.9"></circle> <path class="st4" d="M1063.7,82c1.2,0,2.1-1,2.1-2.1s-1-2.1-2.1-2.1c-1.2,0-2.1,1-2.1,2.1S1062.5,82,1063.7,82L1063.7,82z M1063.7,78.3c0.9,0,1.6,0.7,1.6,1.6c0,0.9-0.7,1.6-1.6,1.6s-1.6-0.7-1.6-1.6C1062.1,79,1062.8,78.3,1063.7,78.3L1063.7,78.3z"></path> <circle class="st1" cx="1217.2" cy="79.9" r="1.9"></circle> <path class="st4" d="M1217.2,82c-1.2,0-2.1-1-2.1-2.1s1-2.1,2.1-2.1c1.2,0,2.1,1,2.1,2.1S1218.4,82,1217.2,82L1217.2,82z M1217.2,78.3c-0.9,0-1.6,0.7-1.6,1.6c0,0.9,0.7,1.6,1.6,1.6s1.6-0.7,1.6-1.6C1218.8,79,1218.1,78.3,1217.2,78.3L1217.2,78.3z"></path> </g> <path class="st1" d="M831.6,237.5c-1,0-1.9-0.8-1.9-1.9s0.8-1.9,1.9-1.9c1,0,1.9,0.8,1.9,1.9S832.6,237.5,831.6,237.5L831.6,237.5 z"></path> <circle class="st1" cx="1566.6" cy="344.3" r="1.9"></circle> <g> <polyline class="st3" points="1093.1,192 1208.8,307.7 1574.5,307.7 "></polyline> <circle class="st1" cx="1093.2" cy="192.1" r="1.9"></circle> <path class="st4" d="M1091.7,193.6c0.8,0.8,2.2,0.8,3,0s0.8-2.2,0-3s-2.2-0.8-3,0l0,0C1090.8,191.4,1090.8,192.7,1091.7,193.6z M1094.3,190.9c0.6,0.6,0.6,1.7,0,2.3s-1.7,0.6-2.3,0c-0.6-0.6-0.6-1.7,0-2.3C1092.7,190.3,1093.7,190.3,1094.3,190.9 C1095,191.5,1093.7,190.3,1094.3,190.9z"></path> <circle class="st1" cx="1574.4" cy="307.7" r="1.9"></circle> <path class="st4" d="M1574.4,309.9c-1.2,0-2.1-1-2.1-2.1s1-2.1,2.1-2.1s2.1,1,2.1,2.1C1576.5,308.9,1575.6,309.9,1574.4,309.9z M1574.4,306.1c-0.9,0-1.6,0.7-1.6,1.6s0.7,1.6,1.6,1.6s1.6-0.7,1.6-1.6C1576,306.9,1575.3,306.1,1574.4,306.1L1574.4,306.1z"></path> </g> <g> <line class="st3" x1="1829.2" y1="265.6" x2="1232.1" y2="265.6"></line> <circle class="st1" cx="1829.1" cy="265.6" r="1.9"></circle> <path class="st4" d="M1829.1,263.4c-1.2,0-2.1,1-2.1,2.1s1,2.1,2.1,2.1s2.1-1,2.1-2.1S1830.2,263.4,1829.1,263.4L1829.1,263.4z M1829.1,267.2c-0.9,0-1.6-0.7-1.6-1.6s0.7-1.6,1.6-1.6s1.6,0.7,1.6,1.6S1830,267.2,1829.1,267.2L1829.1,267.2z"></path> <circle class="st1" cx="1232.2" cy="265.6" r="1.9"></circle> <path class="st4" d="M1232.2,263.4c1.2,0,2.1,1,2.1,2.1s-1,2.1-2.1,2.1s-2.1-1-2.1-2.1S1231,263.4,1232.2,263.4L1232.2,263.4z M1232.2,267.2c0.9,0,1.6-0.7,1.6-1.6s-0.7-1.6-1.6-1.6s-1.6,0.7-1.6,1.6S1231.3,267.2,1232.2,267.2L1232.2,267.2z"></path> </g> <g> <line class="st3" x1="1722.7" y1="216" x2="1402.6" y2="216"></line> <circle class="st1" cx="1722.6" cy="216" r="1.9"></circle> <path class="st4" d="M1722.6,213.9c-1.2,0-2.1,1-2.1,2.1s1,2.1,2.1,2.1c1.2,0,2.1-1,2.1-2.1S1723.7,213.9,1722.6,213.9 L1722.6,213.9z M1722.6,217.7c-0.9,0-1.6-0.7-1.6-1.6s0.7-1.6,1.6-1.6s1.6,0.7,1.6,1.6S1723.5,217.7,1722.6,217.7L1722.6,217.7z"></path> <path class="st1" d="M1402.7,214.1c-1,0-1.9,0.8-1.9,1.9s0.8,1.9,1.9,1.9c1,0,1.9-0.8,1.9-1.9 C1404.6,215,1403.7,214.1,1402.7,214.1L1402.7,214.1z"></path> <path class="st4" d="M1402.7,213.9c1.2,0,2.1,1,2.1,2.1s-1,2.1-2.1,2.1c-1.2,0-2.1-1-2.1-2.1 C1400.6,214.8,1401.5,213.9,1402.7,213.9z M1402.7,217.7c0.9,0,1.6-0.7,1.6-1.6s-0.7-1.6-1.6-1.6s-1.6,0.7-1.6,1.6 S1401.8,217.7,1402.7,217.7L1402.7,217.7z"></path> </g> <g> <line class="st3" x1="1681.7" y1="239.6" x2="1361.6" y2="239.6"></line> <circle class="st1" cx="1681.6" cy="239.6" r="1.9"></circle> <path class="st4" d="M1681.6,237.5c-1.2,0-2.1,1-2.1,2.1s1,2.1,2.1,2.1c1.2,0,2.1-1,2.1-2.1S1682.7,237.5,1681.6,237.5 L1681.6,237.5z M1681.6,241.3c-0.9,0-1.6-0.7-1.6-1.6s0.7-1.6,1.6-1.6s1.6,0.7,1.6,1.6S1682.5,241.3,1681.6,241.3L1681.6,241.3z"></path> <path class="st1" d="M1361.7,237.7c-1,0-1.9,0.8-1.9,1.9s0.8,1.9,1.9,1.9c1,0,1.9-0.8,1.9-1.9 C1363.6,238.6,1362.7,237.7,1361.7,237.7L1361.7,237.7z"></path> <path class="st4" d="M1361.7,237.5c1.2,0,2.1,1,2.1,2.1s-1,2.1-2.1,2.1c-1.2,0-2.1-1-2.1-2.1 C1359.6,238.4,1360.5,237.5,1361.7,237.5z M1361.7,241.3c0.9,0,1.6-0.7,1.6-1.6s-0.7-1.6-1.6-1.6s-1.6,0.7-1.6,1.6 S1360.8,241.3,1361.7,241.3L1361.7,241.3z"></path> </g> </g> </g> </svg> 