<?xml version="1.0" encoding="UTF-8"?> <svg xmlns="http://www.w3.org/2000/svg" viewBox="0 0 140.06 59.29"> <defs> <style>.cls-1{fill:#006fbe;}</style> </defs> <title>Ресурс 2</title> <g id="Слой_2" data-name="Слой 2"> <g id="Слой_1-2" data-name="Слой 1"> <path d="M76.19,28.93H70.66V44.1H65V28.93H59.5v-4.8H76.19Z"></path> <path d="M102.07,16.66h8a17,17,0,0,1,4.17.43,7.88,7.88,0,0,1,3.07,1.67,8.4,8.4,0,0,1,2.79,6.62,8.28,8.28,0,0,1-2.26,6.13c-1.62,1.62-3.93,2.43-6.95,2.43h-3.46V44.1h-5.34Zm5.34,4.61v8.06h2.18a5.86,5.86,0,0,0,3.5-.86,3.83,3.83,0,0,0,1.48-3.21,3.67,3.67,0,0,0-1.52-3.13,6.72,6.72,0,0,0-3.79-.86Z"></path> <path d="M52,24.32h4.54V43.88H52v-2a8.67,8.67,0,0,1-12.71-.33A10.86,10.86,0,0,1,36.6,34a10.56,10.56,0,0,1,2.64-7.33,8.47,8.47,0,0,1,6.58-2.93A8.34,8.34,0,0,1,52,26.59ZM41.22,34a6.83,6.83,0,0,0,1.51,4.58,4.94,4.94,0,0,0,3.9,1.79,5.18,5.18,0,0,0,4-1.73,6.69,6.69,0,0,0,1.55-4.54,6.72,6.72,0,0,0-1.55-4.54,5.12,5.12,0,0,0-4-1.74,5,5,0,0,0-3.9,1.77A6.5,6.5,0,0,0,41.22,34Z"></path> <path d="M93.55,24.32h4.54V43.88H93.55v-2a8.67,8.67,0,0,1-12.71-.33A10.86,10.86,0,0,1,78.21,34a10.55,10.55,0,0,1,2.63-7.33,8.49,8.49,0,0,1,6.59-2.93,8.34,8.34,0,0,1,6.12,2.81ZM82.83,34a6.83,6.83,0,0,0,1.5,4.58,4.94,4.94,0,0,0,3.9,1.79,5.2,5.2,0,0,0,4.06-1.73,6.68,6.68,0,0,0,1.54-4.54,6.71,6.71,0,0,0-1.54-4.54,5.12,5.12,0,0,0-4-1.74,5,5,0,0,0-3.9,1.77A6.5,6.5,0,0,0,82.83,34Z"></path> <path d="M140.06,24.32h-4.52V35.55c0,3.24-1.27,4.86-3.83,4.86s-3.84-1.62-3.84-4.86V24.32h-4.52V35.65a11.08,11.08,0,0,0,.57,4.06,7,7,0,0,0,2,2.75,8.57,8.57,0,0,0,5.81,2,9.48,9.48,0,0,0,3.83-.74V48c0,3.24-1.27,4.86-3.83,4.86s-3.83-1.62-3.83-4.86v-.25h-4.53v.35a11.08,11.08,0,0,0,.57,4.06,6.89,6.89,0,0,0,2,2.75,9.49,9.49,0,0,0,11.63,0,6.72,6.72,0,0,0,1.95-2.75,12.57,12.57,0,0,0,.58-4.06V36.76h0q0-.54,0-1.11Z"></path> <path class="cls-1" d="M132.46,11.74V9.8a9.82,9.82,0,0,0-9.8-9.8H9.8A9.82,9.82,0,0,0,0,9.8v9.28a9.82,9.82,0,0,0,9.8,9.8h10a2.75,2.75,0,1,0,0-1H9.8A8.81,8.81,0,0,1,1,19.08V9.8A8.81,8.81,0,0,1,9.8,1H122.66a8.81,8.81,0,0,1,8.8,8.8v1.94a2.75,2.75,0,1,0,1,0ZM22.5,26.63a1.75,1.75,0,1,1-1.76,1.75A1.75,1.75,0,0,1,22.5,26.63ZM132,16.19a1.75,1.75,0,1,1,1.75-1.75A1.75,1.75,0,0,1,132,16.19Z"></path> <path d="M11.43,56.89v-6.7h1.46a1.94,1.94,0,0,1,1.36.46A1.76,1.76,0,0,1,14,53.33a1.56,1.56,0,0,1,1,.57A1.69,1.69,0,0,1,15.34,55a1.74,1.74,0,0,1-.57,1.37,2.2,2.2,0,0,1-1.5.51Zm.44-6.29v2.62h1.07a1.38,1.38,0,0,0,.91-.28,1.41,1.41,0,0,0,0-2.06,1.79,1.79,0,0,0-1.12-.28Zm0,3v2.86H13l.49,0a2.15,2.15,0,0,0,.46-.1,1.32,1.32,0,0,0,.5-.29,1.27,1.27,0,0,0,.43-1,1.24,1.24,0,0,0-.71-1.24,3.18,3.18,0,0,0-1.25-.19Z"></path> <path d="M19.94,53.51v-.72h.4v4.1h-.4v-.73a1.8,1.8,0,0,1-1.6.84,1.93,1.93,0,0,1-1.41-.59,2.14,2.14,0,0,1-.58-1.57,2.18,2.18,0,0,1,.55-1.55,1.9,1.9,0,0,1,1.44-.59A1.84,1.84,0,0,1,19.94,53.51Zm-1.57-.43a1.55,1.55,0,0,0-1.13.47,1.71,1.71,0,0,0-.47,1.26,2,2,0,0,0,.43,1.27,1.43,1.43,0,0,0,1.18.54,1.41,1.41,0,0,0,1.15-.53A1.94,1.94,0,0,0,20,54.81a1.63,1.63,0,0,0-.49-1.28A1.6,1.6,0,0,0,18.37,53.08Z"></path> <path d="M21.79,56.89v-4.1h.4v3.72h1.9V52.79h.41v3.72h1.9V52.79h.4v4.1Z"></path> <path d="M30.87,52.79h2.69v3.72h.6V58h-.38v-1.1H30.33V58H30V56.51A.87.87,0,0,0,30.7,56a2.71,2.71,0,0,0,.17-1.1Zm2.29,3.72V53.17H31.27V55a1.92,1.92,0,0,1-.52,1.53Z"></path> <path d="M35.36,53.32a2.2,2.2,0,1,1-.62,1.53A2.08,2.08,0,0,1,35.36,53.32Zm.3,2.78a1.71,1.71,0,0,0,2.46,0,1.81,1.81,0,0,0,0-2.5,1.71,1.71,0,0,0-2.46,0,1.81,1.81,0,0,0,0,2.5Z"></path> <path d="M40.22,52.79h1.34a1.37,1.37,0,0,1,.87.24,1,1,0,0,1,.36.79,1,1,0,0,1-.45.85,1,1,0,0,1,.5.23,1,1,0,0,1,.35.82,1,1,0,0,1-.41.89,1.63,1.63,0,0,1-1,.28H40.22Zm.4,1.79h.94a.93.93,0,0,0,.58-.17.71.71,0,0,0,0-1.08,1,1,0,0,0-.58-.16h-.94Zm0,1.93h1.16a1.15,1.15,0,0,0,.7-.18.75.75,0,0,0,.29-.62.68.68,0,0,0-.27-.57,1.19,1.19,0,0,0-.72-.18H40.62Z"></path> <path d="M48,54.89h-3.5A1.52,1.52,0,0,0,45,56.13a1.63,1.63,0,0,0,1.17.49,1.5,1.5,0,0,0,.86-.26,1.72,1.72,0,0,0,.57-.68l.34.2a2.25,2.25,0,0,1-.67.78,1.79,1.79,0,0,1-1.13.34,1.85,1.85,0,0,1-1.47-.61,2.2,2.2,0,0,1-.54-1.53,2.13,2.13,0,0,1,.58-1.59,1.94,1.94,0,0,1,1.4-.57,1.86,1.86,0,0,1,1.41.61A2.17,2.17,0,0,1,48,54.89Zm-3.47-.38h3a1.65,1.65,0,0,0-.5-1,1.42,1.42,0,0,0-1-.41,1.44,1.44,0,0,0-1,.41A1.65,1.65,0,0,0,44.57,54.51Z"></path> <path d="M49.62,56.16v3.13h-.4v-6.5h.4v.72a2,2,0,0,1,3.06-.21,2.17,2.17,0,0,1,.54,1.51,2.27,2.27,0,0,1-.55,1.56,1.83,1.83,0,0,1-1.46.63,1.72,1.72,0,0,1-.83-.19,1.53,1.53,0,0,1-.51-.34A2.27,2.27,0,0,1,49.62,56.16ZM50,56.1a1.59,1.59,0,0,0,2.35,0,2,2,0,0,0,.42-1.29,1.71,1.71,0,0,0-.47-1.27,1.54,1.54,0,0,0-1.12-.46,1.57,1.57,0,0,0-1.13.46,1.61,1.61,0,0,0-.47,1.25A2,2,0,0,0,50,56.1Z"></path> <path d="M58.07,54.89H54.56A1.56,1.56,0,0,0,55,56.13a1.6,1.6,0,0,0,1.17.49,1.47,1.47,0,0,0,.85-.26,1.64,1.64,0,0,0,.57-.68l.35.2a2.29,2.29,0,0,1-.68.78,1.76,1.76,0,0,1-1.12.34,1.87,1.87,0,0,1-1.48-.61,2.2,2.2,0,0,1-.54-1.53,2.14,2.14,0,0,1,.59-1.59,1.94,1.94,0,0,1,1.4-.57,1.84,1.84,0,0,1,1.4.61A2.13,2.13,0,0,1,58.07,54.89Zm-3.48-.38h3a1.59,1.59,0,0,0-.49-1,1.49,1.49,0,0,0-2,0A1.67,1.67,0,0,0,54.59,54.51Z"></path> <path d="M59.25,56.89v-4.1h.4V54.6H62V52.79h.4v4.1H62V55H59.65v1.91Z"></path> <path d="M63.81,56.89v-4.1h.4V54.6h2.31V52.79h.4v4.1h-.4V55H64.21v1.91Z"></path> <path d="M68.36,52.79h.4V54.5h1a1.34,1.34,0,0,1,1,.38,1.18,1.18,0,0,1,.29.81,1.15,1.15,0,0,1-.36.89,1.42,1.42,0,0,1-1,.31H68.36Zm.4,3.72h1a1,1,0,0,0,.64-.19.78.78,0,0,0,.28-.63.76.76,0,0,0-.29-.63,1.07,1.07,0,0,0-.65-.18h-.95Zm2.77-3.72h.41v4.1h-.41Z"></path> <path d="M73.38,52.79h.4v3.28l2.91-3.51v4.33h-.4V53.63l-2.91,3.51Zm1.14-1.3a1,1,0,0,0,1.25,0,1,1,0,0,0,.34-.52l.34.17a1.38,1.38,0,0,1-2.61,0l.34-.17A1.05,1.05,0,0,0,74.52,51.49Z"></path> <path d="M80.48,56.89v-4.1h3v4.1h-.41V53.17H80.88v3.72Z"></path> <path d="M88.3,53.51v-.72h.41v4.1H88.3v-.73a1.78,1.78,0,0,1-1.59.84,1.93,1.93,0,0,1-1.42-.59,2.14,2.14,0,0,1-.58-1.57,2.18,2.18,0,0,1,.55-1.55,1.91,1.91,0,0,1,1.45-.59A1.83,1.83,0,0,1,88.3,53.51Zm-1.57-.43a1.56,1.56,0,0,0-1.13.47,1.71,1.71,0,0,0-.47,1.26,2,2,0,0,0,.43,1.27,1.55,1.55,0,0,0,2.34,0,2,2,0,0,0,.42-1.28,1.63,1.63,0,0,0-.49-1.28A1.59,1.59,0,0,0,86.73,53.08Z"></path> <path d="M90.55,56.16v3.13h-.4v-6.5h.4v.72a1.89,1.89,0,0,1,1.61-.81,1.84,1.84,0,0,1,1.44.6,2.17,2.17,0,0,1,.54,1.51,2.31,2.31,0,0,1-.54,1.56,1.84,1.84,0,0,1-1.46.63,2,2,0,0,1-1.35-.53A3.24,3.24,0,0,1,90.55,56.16Zm.4-.06a1.45,1.45,0,0,0,1.18.52,1.41,1.41,0,0,0,1.17-.52,2,2,0,0,0,.42-1.29,1.71,1.71,0,0,0-.46-1.27,1.61,1.61,0,0,0-2.25,0,1.62,1.62,0,0,0-.48,1.25A2,2,0,0,0,91,56.1Z"></path> <path d="M96.11,56.89V53.17H94.69v-.38h3.25v.38H96.51v3.72Z"></path> <path d="M98.74,56.89v-4.1h.4V54.6h2.31V52.79h.4v4.1h-.4V55H99.14v1.91Z"></path> <path d="M107,54.89h-3.5a1.52,1.52,0,0,0,.45,1.24,1.63,1.63,0,0,0,1.17.49,1.5,1.5,0,0,0,.86-.26,1.72,1.72,0,0,0,.57-.68l.34.2a2.25,2.25,0,0,1-.67.78,1.79,1.79,0,0,1-1.13.34,1.85,1.85,0,0,1-1.47-.61,2.2,2.2,0,0,1-.54-1.53,2.13,2.13,0,0,1,.58-1.59,1.94,1.94,0,0,1,1.4-.57,1.88,1.88,0,0,1,1.41.61A2.17,2.17,0,0,1,107,54.89Zm-3.47-.38h3.05a1.65,1.65,0,0,0-.5-1,1.42,1.42,0,0,0-1-.41,1.44,1.44,0,0,0-1,.41A1.65,1.65,0,0,0,103.49,54.51Z"></path> <path d="M108.54,56.16v3.13h-.4v-6.5h.4v.72a2,2,0,0,1,3.06-.21,2.17,2.17,0,0,1,.54,1.51,2.27,2.27,0,0,1-.55,1.56,1.83,1.83,0,0,1-1.46.63,1.72,1.72,0,0,1-.83-.19,1.53,1.53,0,0,1-.51-.34A2.27,2.27,0,0,1,108.54,56.16Zm.41-.06a1.44,1.44,0,0,0,1.17.52,1.41,1.41,0,0,0,1.17-.52,1.92,1.92,0,0,0,.43-1.29,1.71,1.71,0,0,0-.47-1.27,1.54,1.54,0,0,0-1.12-.46,1.57,1.57,0,0,0-1.13.46,1.61,1.61,0,0,0-.47,1.25A2,2,0,0,0,109,56.1Z"></path> <path d="M29.71,16.87a13.84,13.84,0,0,0-5.29-3.07A23.54,23.54,0,0,0,17,12.88h-6.5V23.14h4.68V17.27h2.1q6,0,9.06,2.84a10.75,10.75,0,0,1,3.42,8.27,10.58,10.58,0,0,1-3.46,8.21,10.44,10.44,0,0,1-3.77,2.23,17.37,17.37,0,0,1-5.25.67h-2.1V34.11H10.53v9.77H17A23.8,23.8,0,0,0,24.24,43,15.07,15.07,0,0,0,34.51,28.38,14.85,14.85,0,0,0,29.71,16.87Z"></path> </g> </g> </svg> 